<mxfile host="app.diagrams.net" modified="2020-08-16T01:18:25.995Z" agent="5.0 (Macintosh; Intel Mac OS X 10_14_6) AppleWebKit/537.36 (KHTML, like Gecko) Chrome/84.0.4147.125 Safari/537.36" etag="KD3rJeeAdh7qW4ehw3RW" version="13.6.2" type="github">
  <diagram id="QwEsTALOVHD5GLF-uJu8" name="Page-1">
    <mxGraphModel dx="795" dy="456" grid="1" gridSize="10" guides="1" tooltips="1" connect="1" arrows="1" fold="1" page="1" pageScale="1" pageWidth="827" pageHeight="1169" math="0" shadow="0">
      <root>
        <mxCell id="0" />
        <mxCell id="1" parent="0" />
        <mxCell id="-1Mi1pXsmesw67d8ZnRU-1" value="" style="ellipse;whiteSpace=wrap;html=1;" vertex="1" parent="1">
          <mxGeometry x="540" y="280" width="220" height="190" as="geometry" />
        </mxCell>
        <mxCell id="-1Mi1pXsmesw67d8ZnRU-2" value="" style="ellipse;shape=cloud;whiteSpace=wrap;html=1;" vertex="1" parent="1">
          <mxGeometry x="180" y="120" width="120" height="80" as="geometry" />
        </mxCell>
        <mxCell id="-1Mi1pXsmesw67d8ZnRU-3" value="Actor" style="shape=umlActor;verticalLabelPosition=bottom;verticalAlign=top;html=1;outlineConnect=0;" vertex="1" parent="1">
          <mxGeometry x="180" y="190" width="30" height="60" as="geometry" />
        </mxCell>
        <mxCell id="-1Mi1pXsmesw67d8ZnRU-4" value="" style="curved=1;endArrow=classic;html=1;" edge="1" parent="1">
          <mxGeometry width="50" height="50" relative="1" as="geometry">
            <mxPoint x="210" y="250" as="sourcePoint" />
            <mxPoint x="260" y="200" as="targetPoint" />
            <Array as="points">
              <mxPoint x="260" y="250" />
              <mxPoint x="210" y="200" />
            </Array>
          </mxGeometry>
        </mxCell>
        <mxCell id="-1Mi1pXsmesw67d8ZnRU-5" value="" style="endArrow=classic;html=1;" edge="1" parent="1">
          <mxGeometry relative="1" as="geometry">
            <mxPoint x="230" y="250" as="sourcePoint" />
            <mxPoint x="330" y="250" as="targetPoint" />
          </mxGeometry>
        </mxCell>
        <mxCell id="-1Mi1pXsmesw67d8ZnRU-6" value="" style="shape=cloud;html=1;outlineConnect=0;" vertex="1" parent="-1Mi1pXsmesw67d8ZnRU-5">
          <mxGeometry width="30" height="20" relative="1" as="geometry">
            <mxPoint x="-15" y="-10" as="offset" />
          </mxGeometry>
        </mxCell>
        <mxCell id="-1Mi1pXsmesw67d8ZnRU-7" value="" style="shape=xor;whiteSpace=wrap;html=1;" vertex="1" parent="1">
          <mxGeometry x="370" y="170" width="60" height="80" as="geometry" />
        </mxCell>
        <mxCell id="-1Mi1pXsmesw67d8ZnRU-8" value="" style="shape=or;whiteSpace=wrap;html=1;" vertex="1" parent="1">
          <mxGeometry x="260" y="190" width="20" height="20" as="geometry" />
        </mxCell>
        <mxCell id="-1Mi1pXsmesw67d8ZnRU-12" style="edgeStyle=orthogonalEdgeStyle;rounded=0;orthogonalLoop=1;jettySize=auto;html=1;entryX=0;entryY=0.5;entryDx=0;entryDy=0;" edge="1" parent="1" source="-1Mi1pXsmesw67d8ZnRU-9" target="-1Mi1pXsmesw67d8ZnRU-11">
          <mxGeometry relative="1" as="geometry" />
        </mxCell>
        <mxCell id="-1Mi1pXsmesw67d8ZnRU-9" value="Entity" style="rounded=1;arcSize=10;whiteSpace=wrap;html=1;align=center;" vertex="1" parent="1">
          <mxGeometry x="180" y="560" width="100" height="40" as="geometry" />
        </mxCell>
        <mxCell id="-1Mi1pXsmesw67d8ZnRU-10" value="Entity" style="rounded=1;arcSize=10;whiteSpace=wrap;html=1;align=center;" vertex="1" parent="1">
          <mxGeometry x="570" y="560" width="100" height="40" as="geometry" />
        </mxCell>
        <mxCell id="-1Mi1pXsmesw67d8ZnRU-13" style="edgeStyle=orthogonalEdgeStyle;rounded=0;orthogonalLoop=1;jettySize=auto;html=1;entryX=0;entryY=0.5;entryDx=0;entryDy=0;" edge="1" parent="1" source="-1Mi1pXsmesw67d8ZnRU-11" target="-1Mi1pXsmesw67d8ZnRU-10">
          <mxGeometry relative="1" as="geometry" />
        </mxCell>
        <mxCell id="-1Mi1pXsmesw67d8ZnRU-11" value="Relationship" style="shape=rhombus;perimeter=rhombusPerimeter;whiteSpace=wrap;html=1;align=center;" vertex="1" parent="1">
          <mxGeometry x="350" y="550" width="120" height="60" as="geometry" />
        </mxCell>
        <mxCell id="-1Mi1pXsmesw67d8ZnRU-14" value="Table" style="shape=table;startSize=30;container=1;collapsible=1;childLayout=tableLayout;fixedRows=1;rowLines=0;fontStyle=1;align=center;resizeLast=1;fillColor=#fa6800;strokeColor=#C73500;fontColor=#ffffff;" vertex="1" parent="1">
          <mxGeometry x="180" y="640" width="190" height="220" as="geometry" />
        </mxCell>
        <mxCell id="-1Mi1pXsmesw67d8ZnRU-15" value="" style="shape=partialRectangle;collapsible=0;dropTarget=0;pointerEvents=0;fillColor=none;top=0;left=0;bottom=1;right=0;points=[[0,0.5],[1,0.5]];portConstraint=eastwest;" vertex="1" parent="-1Mi1pXsmesw67d8ZnRU-14">
          <mxGeometry y="30" width="190" height="30" as="geometry" />
        </mxCell>
        <mxCell id="-1Mi1pXsmesw67d8ZnRU-16" value="PK" style="shape=partialRectangle;connectable=0;fillColor=none;top=0;left=0;bottom=0;right=0;fontStyle=1;overflow=hidden;" vertex="1" parent="-1Mi1pXsmesw67d8ZnRU-15">
          <mxGeometry width="30" height="30" as="geometry" />
        </mxCell>
        <mxCell id="-1Mi1pXsmesw67d8ZnRU-17" value="clienteID" style="shape=partialRectangle;connectable=0;fillColor=none;top=0;left=0;bottom=0;right=0;align=left;spacingLeft=6;fontStyle=5;overflow=hidden;" vertex="1" parent="-1Mi1pXsmesw67d8ZnRU-15">
          <mxGeometry x="30" width="160" height="30" as="geometry" />
        </mxCell>
        <mxCell id="-1Mi1pXsmesw67d8ZnRU-18" value="" style="shape=partialRectangle;collapsible=0;dropTarget=0;pointerEvents=0;fillColor=none;top=0;left=0;bottom=0;right=0;points=[[0,0.5],[1,0.5]];portConstraint=eastwest;" vertex="1" parent="-1Mi1pXsmesw67d8ZnRU-14">
          <mxGeometry y="60" width="190" height="30" as="geometry" />
        </mxCell>
        <mxCell id="-1Mi1pXsmesw67d8ZnRU-19" value="" style="shape=partialRectangle;connectable=0;fillColor=none;top=0;left=0;bottom=0;right=0;editable=1;overflow=hidden;" vertex="1" parent="-1Mi1pXsmesw67d8ZnRU-18">
          <mxGeometry width="30" height="30" as="geometry" />
        </mxCell>
        <mxCell id="-1Mi1pXsmesw67d8ZnRU-20" value="last_name" style="shape=partialRectangle;connectable=0;fillColor=none;top=0;left=0;bottom=0;right=0;align=left;spacingLeft=6;overflow=hidden;" vertex="1" parent="-1Mi1pXsmesw67d8ZnRU-18">
          <mxGeometry x="30" width="160" height="30" as="geometry" />
        </mxCell>
        <mxCell id="-1Mi1pXsmesw67d8ZnRU-21" value="" style="shape=partialRectangle;collapsible=0;dropTarget=0;pointerEvents=0;fillColor=none;top=0;left=0;bottom=0;right=0;points=[[0,0.5],[1,0.5]];portConstraint=eastwest;" vertex="1" parent="-1Mi1pXsmesw67d8ZnRU-14">
          <mxGeometry y="90" width="190" height="30" as="geometry" />
        </mxCell>
        <mxCell id="-1Mi1pXsmesw67d8ZnRU-22" value="" style="shape=partialRectangle;connectable=0;fillColor=none;top=0;left=0;bottom=0;right=0;editable=1;overflow=hidden;" vertex="1" parent="-1Mi1pXsmesw67d8ZnRU-21">
          <mxGeometry width="30" height="30" as="geometry" />
        </mxCell>
        <mxCell id="-1Mi1pXsmesw67d8ZnRU-23" value="first_name" style="shape=partialRectangle;connectable=0;fillColor=none;top=0;left=0;bottom=0;right=0;align=left;spacingLeft=6;overflow=hidden;" vertex="1" parent="-1Mi1pXsmesw67d8ZnRU-21">
          <mxGeometry x="30" width="160" height="30" as="geometry" />
        </mxCell>
        <mxCell id="-1Mi1pXsmesw67d8ZnRU-24" value="" style="shape=partialRectangle;collapsible=0;dropTarget=0;pointerEvents=0;fillColor=none;top=0;left=0;bottom=0;right=0;points=[[0,0.5],[1,0.5]];portConstraint=eastwest;" vertex="1" parent="-1Mi1pXsmesw67d8ZnRU-14">
          <mxGeometry y="120" width="190" height="30" as="geometry" />
        </mxCell>
        <mxCell id="-1Mi1pXsmesw67d8ZnRU-25" value="" style="shape=partialRectangle;connectable=0;fillColor=none;top=0;left=0;bottom=0;right=0;editable=1;overflow=hidden;" vertex="1" parent="-1Mi1pXsmesw67d8ZnRU-24">
          <mxGeometry width="30" height="30" as="geometry" />
        </mxCell>
        <mxCell id="-1Mi1pXsmesw67d8ZnRU-26" value="adress" style="shape=partialRectangle;connectable=0;fillColor=none;top=0;left=0;bottom=0;right=0;align=left;spacingLeft=6;overflow=hidden;" vertex="1" parent="-1Mi1pXsmesw67d8ZnRU-24">
          <mxGeometry x="30" width="160" height="30" as="geometry" />
        </mxCell>
        <mxCell id="-1Mi1pXsmesw67d8ZnRU-27" value="" style="shape=partialRectangle;connectable=0;fillColor=none;top=0;left=0;bottom=0;right=0;align=left;spacingLeft=6;overflow=hidden;" vertex="1" parent="1">
          <mxGeometry x="210" y="790" width="160" height="30" as="geometry" />
        </mxCell>
      </root>
    </mxGraphModel>
  </diagram>
</mxfile>
